HIERARCHY
ROOT root
{
	OFFSET	0	13.1	24.9
	CHANNELS 6  Xposition Yposition Zposition Xrotation Yrotation Zrotation
	JOINT spine_1
	{
		OFFSET	0	9.99999	0
		CHANNELS 3  Xrotation Yrotation Zrotation
		JOINT spine_2
		{
			OFFSET	0	112	-10
			CHANNELS 3  Xrotation Yrotation Zrotation
			JOINT spine_3
			{
				OFFSET	0	206.5	19.3
				CHANNELS 3  Xrotation Yrotation Zrotation
				JOINT spine_4
				{
					OFFSET	0	110.4	14.6
					CHANNELS 3  Xrotation Yrotation Zrotation
					JOINT neck_1
					{
						OFFSET	0	71.8	-50.3
						CHANNELS 3  Xrotation Yrotation Zrotation
						JOINT neck_2
						{
							OFFSET	0	86.2	-25.8
							CHANNELS 3  Xrotation Yrotation Zrotation
							JOINT head_ee
							{
								OFFSET	0	179.8	-8.7
								CHANNELS 3  Xrotation Yrotation Zrotation
								End Site
								{
									OFFSET	1	0	0
								}
							}
						}
					}
					JOINT left_clavicle
					{
						OFFSET	-43.2	22.4	-70.8
						CHANNELS 3  Xrotation Yrotation Zrotation
						JOINT left_shoulder
						{
							OFFSET	-93.9	-5.79999	48.7
							CHANNELS 3  Xrotation Yrotation Zrotation
							JOINT left_elbow
							{
								OFFSET	-291.4	-30.8	15.2
								CHANNELS 3  Xrotation Yrotation Zrotation
								JOINT left_lowarm_twist
								{
									OFFSET	-110.7	-3.89999	13.6
									CHANNELS 3  Xrotation Yrotation Zrotation
									JOINT left_hand
									{
										OFFSET	-110.7	-3.89999	13.6
										CHANNELS 3  Xrotation Yrotation Zrotation
										JOINT left_ee
										{
											OFFSET	-80.8	-5.10001	12.1
											CHANNELS 3  Xrotation Yrotation Zrotation
											End Site
											{
												OFFSET	1	0	0
											}
										}
									}
								}
							}
						}
					}
					JOINT right_clavicle
					{
						OFFSET	43.2	22.4	-70.8
						CHANNELS 3  Xrotation Yrotation Zrotation
						JOINT right_shoulder
						{
							OFFSET	93.9	-5.79999	48.7
							CHANNELS 3  Xrotation Yrotation Zrotation
							JOINT right_elbow
							{
								OFFSET	291.4	-30.8	15.2
								CHANNELS 3  Xrotation Yrotation Zrotation
								JOINT right_lowarm_twist
								{
									OFFSET	110.7	-3.89999	13.6
									CHANNELS 3  Xrotation Yrotation Zrotation
									JOINT right_hand
									{
										OFFSET	110.7	-3.89999	13.6
										CHANNELS 3  Xrotation Yrotation Zrotation
										JOINT right_ee
										{
											OFFSET	80.8	-5.10001	12.1
											CHANNELS 3  Xrotation Yrotation Zrotation
											End Site
											{
												OFFSET	1	0	0
											}
										}
									}
								}
							}
						}
					}
				}
			}
		}
	}
	JOINT left_hip
	{
		OFFSET	-82.8	-127.5	0.300001
		CHANNELS 3  Xrotation Yrotation Zrotation
		JOINT left_knee
		{
			OFFSET	-28.2	-396.7	2.2
			CHANNELS 3  Xrotation Yrotation Zrotation
			JOINT left_ankle
			{
				OFFSET	-11.7	-411.3	35.4
				CHANNELS 3  Xrotation Yrotation Zrotation
				JOINT left_toes
				{
					OFFSET	0	-60	-88.6
					CHANNELS 3  Xrotation Yrotation Zrotation
					JOINT left_foot_ee
					{
						OFFSET	-22.5	-16.5	-42.2
						CHANNELS 3  Xrotation Yrotation Zrotation
						End Site
						{
							OFFSET	1	0	0
						}
					}
				}
			}
		}
	}
	JOINT right_hip
	{
		OFFSET	82.8	-127.5	0.300001
		CHANNELS 3  Xrotation Yrotation Zrotation
		JOINT right_knee
		{
			OFFSET	28.2	-396.7	2.2
			CHANNELS 3  Xrotation Yrotation Zrotation
			JOINT right_ankle
			{
				OFFSET	11.7	-411.3	35.4
				CHANNELS 3  Xrotation Yrotation Zrotation
				JOINT right_toes
				{
					OFFSET	0	-60	-88.6
					CHANNELS 3  Xrotation Yrotation Zrotation
					JOINT right_foot_ee
					{
						OFFSET	22.5	-16.5	-42.2
						CHANNELS 3  Xrotation Yrotation Zrotation
						End Site
						{
							OFFSET	1	0	0
						}
					}
				}
			}
		}
	}
}
MOTION
Frames: 13
Frame Time: 0.02
493.091 620.54 -1834.2 -104.199 69.188 122.963 9.58443 -1.22536 -5.90165 9.6034 -0.848032 -5.96734 9.64986 -0.59245 -5.998 9.60295 -1.53068 -5.83016 -6.0207 -12.5251 16.4118 -4.77822 -35.0982 14.7112 -0.0 0.0 -0.0 12.3939 -25.1974 24.3719 13.7719 71.3742 46.9406 0.201244 -5.69318 0.0100065 10.5433 0.250487 -1.32163 -3.47502 28.865 -7.45813 -0.0 0.0 -0.0 -4.86983 -25.1626 3.54459 90.6173 -75.2535 20.3517 0.515077 14.314 -0.0646771 77.2173 3.52161 8.44519 -2.8683 -18.3888 9.8929 0.0 0.0 0.0 31.0644 -23.568 -14.1511 -16.7809 0.320074 2.54612 41.5835 7.47792 -4.99763 -10.774 0.0 0.0 -0.0 0.0 -0.0 46.8351 6.11951 -18.1459 -63.4552 2.5844 -8.89476 7.13617 -18.4672 1.04107 18.7574 -0.0 -0.0 0.0 0.0 0.0 
476.937 628.585 -1836.22 -110.465 69.3619 130.001 9.18661 -1.3085 -6.07648 9.20667 -0.919939 -6.14706 9.26324 -0.615245 -6.18485 9.21338 -1.58254 -6.01117 -12.3726 -13.6655 14.4425 -12.4839 -35.0505 9.89304 -0.0 0.0 -0.0 13.5156 -25.8093 26.8953 14.7321 72.5364 42.486 0.265697 -7.49826 0.0174107 18.4798 0.276853 -2.33417 -4.05906 26.2803 -12.3044 -0.0 0.0 -0.0 -5.43498 -25.4376 4.2265 90.707 -76.5871 20.5722 0.522927 14.523 -0.0666318 76.881 3.48386 8.42426 -2.30441 -9.78783 10.7885 0.0 0.0 0.0 31.7665 -20.3019 -13.9326 -20.0956 0.29449 3.05399 38.4051 -1.61422 -4.74996 -10.1503 0.0 0.0 -0.0 0.0 -0.0 46.5996 8.16009 -18.4416 -62.1924 2.44132 -8.76245 28.7463 -7.2167 3.75307 21.6942 -0.0 -0.0 0.0 0.0 0.0 
475.793 630.292 -1839.67 -109.574 69.4992 129.046 9.13666 -1.35934 -6.0677 9.1566 -0.971235 -6.14151 9.21898 -0.662258 -6.18231 9.16937 -1.62857 -6.00127 -14.7075 -13.3007 12.821 -15.2266 -33.0151 7.6106 -0.0 0.0 -0.0 13.9272 -25.6126 27.8797 16.887 71.7537 38.8498 0.213143 -6.02737 0.0112213 18.0867 0.278851 -2.28401 -4.80786 26.1251 -16.7452 -0.0 0.0 -0.0 -5.36921 -25.2672 4.18532 90.6423 -76.5539 20.6132 0.500996 13.9382 -0.0612405 76.5882 3.4511 8.40587 -1.61774 0.368255 11.0377 0.0 0.0 0.0 32.9648 -17.2899 -14.2052 -18.8238 0.30778 2.8593 41.6113 2.73222 -4.99748 1.24873 -0.0 -0.0 -0.0 0.0 -0.0 45.9716 6.71827 -17.701 -62.18 2.43993 -8.76114 31.6951 -12.0217 4.08935 16.4565 -0.0 -0.0 0.0 0.0 0.0 
469.142 619.532 -1835.74 -110.841 69.3062 129.982 9.076 -1.56177 -6.05532 9.09562 -1.17403 -6.14197 9.18024 -0.861772 -6.19331 9.13139 -1.82734 -5.98079 -17.0334 -13.6124 11.0753 -17.9679 -32.26 5.05737 -0.0 0.0 -0.0 14.4758 -26.6783 29.0337 20.7728 70.7113 34.6022 0.185163 -5.24088 0.00847443 18.3983 0.277296 -2.32377 -5.30404 25.8839 -19.8751 -0.0 0.0 -0.0 -5.45297 -25.1639 4.32606 91.0069 -77.3905 21.4102 0.556779 15.4197 -0.0753774 77.3611 3.53779 8.45407 -0.760308 8.37587 8.72287 0.0 0.0 0.0 34.586 -11.6897 -13.3898 -16.7702 0.320109 2.54447 41.4794 3.95404 -4.98392 17.0167 -0.0 -0.0 -0.0 0.0 -0.0 46.8099 4.01014 -17.6582 -54.7338 1.65896 -7.92028 34.0894 -19.9202 4.44482 3.61453 -0.0 -0.0 0.0 0.0 0.0 
475.296 616.917 -1840.9 -106.531 69.1944 125.966 9.16635 -1.50618 -6.02982 9.18587 -1.12017 -6.11301 9.26398 -0.818146 -6.16053 9.21546 -1.77911 -5.95526 -17.2693 -14.3928 10.0483 -18.3926 -33.1485 3.65048 -0.0 0.0 -0.0 14.8486 -27.3261 29.8243 22.3596 70.0853 32.8949 0.177174 -5.01594 0.00776031 18.3081 0.277768 -2.31226 -5.73469 24.4502 -23.6536 -0.0 0.0 -0.0 -5.61617 -24.815 4.64356 87.7107 -78.3789 18.0046 0.589208 16.2714 -0.0842321 78.216 3.63444 8.50602 -0.0494698 15.0354 6.73511 0.0 0.0 0.0 37.0836 -3.78701 -14.9338 -15.1546 0.321874 2.2966 40.9716 2.08153 -4.94653 34.5076 -0.0 -0.0 -0.0 0.0 -0.0 47.0434 2.89607 -16.0109 -49.4471 1.17436 -7.26605 41.7918 -25.5993 5.35744 -9.83522 0.0 0.0 0.0 0.0 0.0 
475.955 616.322 -1845.66 -96.9238 68.3045 115.719 9.81328 -1.44718 -5.85134 9.83167 -1.07259 -5.93118 9.90029 -0.845742 -5.96762 9.85501 -1.77605 -5.76033 -18.6518 -13.9695 11.3971 -19.8588 -32.8647 4.68306 -0.0 0.0 -0.0 14.1993 -27.3975 28.2882 23.1977 70.8461 34.204 0.16965 -4.80395 0.00711628 19.4494 0.270455 -2.45785 -7.07705 26.7476 -30.3318 -0.0 0.0 -0.0 -6.32914 -24.6262 5.67146 81.1222 -79.2014 11.3945 0.571059 15.7956 -0.0792193 77.3475 3.53626 8.45323 0.136425 20.4011 7.76613 0.0 0.0 0.0 40.5198 5.28008 -17.2873 -9.62443 0.275045 1.44971 40.8169 2.1394 -4.93328 40.4969 -0.0 -0.0 -0.0 0.0 -0.0 46.5694 0.618124 -14.2619 -35.126 0.186151 -5.30403 42.5532 -26.6293 5.46556 -25.2351 0.0 0.0 0.0 0.0 0.0 
475.34 615.54 -1848.23 -94.3539 67.1788 112.82 10.4212 -1.38311 -5.7621 10.4391 -1.01429 -5.83807 10.4982 -0.85211 -5.86385 10.4546 -1.76603 -5.65682 -20.154 -13.9824 13.0683 -21.5302 -33.4709 5.78126 -0.0 0.0 -0.0 13.6899 -27.4611 27.0924 19.4596 71.7238 38.3126 0.165622 -4.6904 0.00678293 20.5218 0.260942 -2.5945 -8.44391 30.2165 -35.8634 -0.0 0.0 -0.0 -6.78277 -24.5038 6.33425 80.2308 -79.9281 9.99505 0.55183 15.2891 -0.074067 77.7189 3.57815 8.47599 0.342502 24.2007 8.01575 0.0 0.0 0.0 42.6243 12.3878 -15.8947 -7.67716 0.23913 1.15307 41.5183 -2.40815 -5.02572 40.5822 -0.0 -0.0 -0.0 0.0 -0.0 44.8231 -1.05984 -15.1921 -25.3039 -0.195107 -3.84676 43.5988 -26.6981 5.56324 -34.7988 0.0 0.0 0.0 0.0 0.0 
466.35 613.999 -1850.73 -94.2831 66.6173 111.912 10.9919 -1.45127 -5.63946 11.009 -1.09008 -5.72001 11.0726 -0.989211 -5.73826 11.0316 -1.88169 -5.51117 -19.8038 -13.9989 14.5895 -21.1013 -34.3505 7.31431 -0.0 0.0 -0.0 13.3158 -27.221 26.2569 17.6494 73.0257 40.4578 0.159254 -4.51083 0.00627216 22.716 0.233517 -2.87342 -9.36943 31.3095 -41.1657 -0.0 0.0 -0.0 -8.3073 -25.0763 8.24978 73.3073 -82.8789 0.502989 0.511071 14.2072 -0.0636904 78.6248 3.68092 8.53036 0.652607 27.0561 7.22107 0.0 0.0 0.0 44.7985 16.5605 -17.7871 -7.8785 0.24331 1.18368 40.1704 -4.10744 -4.93342 40.2398 -0.0 -0.0 -0.0 0.0 -0.0 43.6706 -1.17251 -14.9973 -22.4636 -0.258245 -3.41551 43.5931 -26.0481 5.53771 -38.7695 0.0 0.0 0.0 0.0 0.0 
463.139 604.528 -1856.15 -93.9266 66.0796 111.118 11.4174 -1.45304 -5.43161 11.4331 -1.10501 -5.51273 11.4957 -1.04862 -5.5237 11.4582 -1.90662 -5.28985 -19.8099 -13.7514 15.267 -21.0261 -34.2232 8.08754 -0.0 0.0 -0.0 12.9579 -27.1536 25.4395 25.6583 72.7574 33.8828 0.15018 -4.25479 0.00557881 26.0399 0.171679 -3.29345 -9.76263 31.4169 -44.1019 -0.0 0.0 -0.0 -9.51755 -25.3779 9.82171 63.8315 -84.5458 -10.8764 0.487915 13.5879 -0.0581286 79.8466 3.82087 8.6011 0.670002 28.7497 7.84012 0.0 0.0 0.0 47.3573 19.0554 -18.7667 -14.6047 0.320881 2.21225 40.5445 -6.62408 -5.00455 40.2981 -0.0 -0.0 -0.0 0.0 -0.0 43.7249 1.58758 -16.281 -20.4813 -0.289606 -3.11296 42.8349 -25.5477 5.45115 -40.1216 0.0 0.0 0.0 0.0 0.0 
458.839 603.24 -1864.36 -93.9181 66.0133 111.15 11.703 -1.48849 -5.28166 11.7178 -1.14989 -5.36534 11.7829 -1.12209 -5.37121 11.748 -1.95519 -5.12764 -20.6644 -14.8765 13.9565 -22.3289 -35.5087 5.94995 -0.0 0.0 -0.0 12.6214 -27.0968 24.673 33.3366 73.3425 27.2823 0.151731 -4.29857 0.00569446 30.4421 0.0524812 -3.84301 -10.1367 31.3359 -47.4006 -0.0 0.0 -0.0 -10.3338 -25.9205 10.7351 48.8811 -85.9981 -26.946 0.467221 13.0317 -0.0533644 81.2208 3.98002 8.67708 0.698372 28.6046 7.59612 0.0 0.0 0.0 49.7454 20.315 -20.899 -19.1161 0.305109 2.90406 39.3605 -6.80749 -4.90574 39.3482 -0.0 -0.0 -0.0 0.0 -0.0 44.4791 6.01517 -17.5746 -19.0833 -0.30542 -2.89905 42.3858 -25.1989 5.39799 -40.1936 0.0 0.0 0.0 0.0 0.0 
456.782 604.588 -1868.68 -94.5993 65.5871 112.264 11.9397 -1.46985 -5.12765 11.9536 -1.14104 -5.21048 12.0164 -1.13517 -5.21176 11.9837 -1.94303 -4.96805 -22.6523 -16.147 12.2064 -25.0243 -36.6517 2.87155 -0.0 0.0 -0.0 12.4035 -26.8408 24.2052 35.986 75.6836 24.606 0.169145 -4.7897 0.00707405 37.3499 -0.218647 -4.68278 -10.1811 30.3726 -49.5057 -0.0 0.0 -0.0 -11.5148 -26.3849 12.1838 27.409 -86.8012 -49.0846 0.453197 12.6534 -0.0502473 82.7474 4.15889 8.75699 0.302021 28.6242 10.146 0.0 0.0 0.0 52.2089 22.9229 -21.8961 -22.5122 0.257346 3.42291 39.4914 -8.39363 -4.94753 37.9358 -0.0 -0.0 -0.0 0.0 -0.0 44.788 9.06094 -19.5094 -18.1137 -0.31332 -2.75049 42.0993 -23.5593 5.31762 -40.1787 0.0 0.0 0.0 0.0 0.0 
452.822 605.596 -1870.26 -94.2747 65.5507 112.243 12.0983 -1.4753 -5.14012 12.1123 -1.14569 -5.22327 12.1749 -1.15433 -5.22138 12.1422 -1.96346 -4.97454 -24.1928 -16.6002 10.9892 -26.9515 -36.6383 0.924702 -0.0 0.0 -0.0 12.9396 -28.3274 25.2443 53.019 77.0886 8.34156 0.183838 -5.20359 0.00835386 44.4718 -0.602061 -5.50849 -10.7571 31.7488 -52.4671 -0.0 0.0 -0.0 -12.1859 -26.7132 12.9722 -0.560753 -86.5801 -76.8697 0.494871 13.7743 -0.0597737 85.0493 4.43243 8.8684 -0.0712152 25.8335 11.4141 0.0 0.0 0.0 54.9538 24.3075 -24.7606 -26.4422 0.163812 4.01865 39.1795 -10.4952 -4.96665 38.4577 -0.0 -0.0 -0.0 0.0 -0.0 45.3472 11.2149 -20.3311 -17.1633 -0.318622 -2.60477 41.8659 -21.0727 5.22474 -40.1969 0.0 0.0 0.0 0.0 0.0 
446.626 608.724 -1870.73 -96.4005 65.7063 114.607 12.2277 -1.6922 -5.24359 12.242 -1.3556 -5.34027 12.3245 -1.37942 -5.33418 12.2916 -2.2035 -5.05054 -24.8982 -15.9678 11.2798 -27.5168 -35.4061 1.42088 -0.0 0.0 -0.0 13.2931 -27.8594 26.1208 68.638 77.5646 -7.00856 0.191705 -5.42498 0.00908246 49.9717 -0.966788 -6.11033 -11.1056 32.1378 -55.3069 -0.0 0.0 -0.0 -11.8422 -25.8313 12.9269 -9.42516 -76.6268 -84.2003 0.598307 16.5091 -0.0867996 85.1852 4.44872 8.87464 -0.717435 15.5536 11.4888 0.0 0.0 0.0 54.6906 20.6031 -25.4896 -27.3944 0.135014 4.16194 35.5866 -20.4315 -4.94971 9.25476 -0.0 -0.0 -0.0 0.0 -0.0 45.8089 12.6104 -20.6606 -19.7951 -0.29802 -3.00801 42.5907 -25.4571 5.42575 -16.2843 0.0 0.0 0.0 0.0 0.0 
